# File exported by Houdini 19.5.493 (www.sidefx.com)
# 26 points
# 144 vertices
# 48 primitives
# Bounds: [-0.5, -0.5, -0.5] to [0.5, 0.5, 0.5]
g 
v 0.5 -0.5 0.5
v 0 -0.5 0.5
v 0.5 -0.5 -3.0616168e-17
v 0 -0.5 -3.0616168e-17
v -0.5 -0.5 0.5
v 0.5 -0.5 -0.5
v -0.5 -0.5 -3.0616168e-17
v 0 -0.5 -0.5
v -0.5 -0.5 -0.5
v 0.5 0.5 1.53080837e-16
v 0 0.5 0.5
v 0.5 0.5 0.5
v 0 0.5 1.53080837e-16
v 0.5 0.5 -0.5
v -0.5 0.5 0.5
v 0 0.5 -0.5
v -0.5 0.5 1.53080837e-16
v -0.5 0.5 -0.5
v 0.5 -6.1232336e-17 0.5
v 0 -6.1232336e-17 0.5
v -0.5 -6.1232336e-17 0.5
v 0.5 6.1232336e-17 -0.5
v 0.5 -5.62409909e-33 6.1232336e-17
v -0.5 6.1232336e-17 -0.5
v 0 6.1232336e-17 -0.5
v -0.5 -5.62409909e-33 6.1232336e-17
vt 0 0 0
vt 0.5 0 0
vt 0 0.5 0
vt 0.5 0.5 0
vt 1 0 0
vt 0 1 0
vt 1 0.5 0
vt 0.5 1 0
vt 1 1 0
vn 0.577350378 -0.577350318 0.577350318
vn 0 -0.707106829 0.707106829
vn 0.707106829 -0.707106829 0
vn 0 -1 0
vn -0.577350259 -0.577350318 0.577350318
vn 0.577350259 -0.577350318 -0.577350318
vn -0.707106709 -0.707106769 0
vn 0 -0.707106769 -0.707106709
vn -0.577350378 -0.577350318 -0.577350318
vn 0.707106769 0.707106709 0
vn 0 0.707106709 0.707106769
vn 0.577350318 0.577350318 0.577350378
vn 0 1 0
vn 0.577350318 0.577350318 -0.577350259
vn -0.577350318 0.577350318 0.577350259
vn 0 0.707106769 -0.707106769
vn -0.707106769 0.707106769 0
vn -0.577350318 0.577350318 -0.577350378
vn 0.707106769 0 0.707106709
vn 0 0 1
vn -0.707106709 0 0.707106769
vn 0.707106709 0 -0.707106769
vn 1 0 0
vn -0.707106769 0 -0.707106709
vn 0 0 -1
vn -1 0 0
g 
usemtl WorldGridMaterial
f 1/1/1 2/2/2 3/3/3
f 2/2/2 4/4/4 3/3/3
f 2/2/2 5/5/5 4/4/4
f 3/3/3 4/4/4 6/6/6
f 5/5/5 7/7/7 4/4/4
f 4/4/4 8/8/8 6/6/6
f 4/4/4 7/7/7 8/8/8
f 7/7/7 9/9/9 8/8/8
f 10/7/10 11/2/11 12/5/12
f 10/7/10 13/4/13 11/2/11
f 14/9/14 13/4/13 10/7/10
f 13/4/13 15/1/15 11/2/11
f 14/9/14 16/8/16 13/4/13
f 13/4/13 17/3/17 15/1/15
f 16/8/16 17/3/17 13/4/13
f 16/8/16 18/6/18 17/3/17
f 19/7/19 2/2/2 1/5/1
f 19/7/19 20/4/20 2/2/2
f 12/9/12 20/4/20 19/7/19
f 20/4/20 5/1/5 2/2/2
f 12/9/12 11/8/11 20/4/20
f 20/4/20 21/3/21 5/1/5
f 11/8/11 21/3/21 20/4/20
f 11/8/11 15/6/15 21/3/21
f 22/7/22 3/2/3 6/5/6
f 22/7/22 23/4/23 3/2/3
f 14/9/14 23/4/23 22/7/22
f 23/4/23 1/1/1 3/2/3
f 14/9/14 10/8/10 23/4/23
f 23/4/23 19/3/19 1/1/1
f 10/8/10 19/3/19 23/4/23
f 10/8/10 12/6/12 19/3/19
f 24/7/24 8/2/8 9/5/9
f 24/7/24 25/4/25 8/2/8
f 18/9/18 25/4/25 24/7/24
f 25/4/25 6/1/6 8/2/8
f 18/9/18 16/8/16 25/4/25
f 25/4/25 22/3/22 6/1/6
f 16/8/16 22/3/22 25/4/25
f 16/8/16 14/6/14 22/3/22
f 21/7/21 7/2/7 5/5/5
f 21/7/21 26/4/26 7/2/7
f 15/9/15 26/4/26 21/7/21
f 26/4/26 9/1/9 7/2/7
f 15/9/15 17/8/17 26/4/26
f 26/4/26 24/3/24 9/1/9
f 17/8/17 24/3/24 26/4/26
f 17/8/17 18/6/18 24/3/24
